<?xml version="1.0" encoding="iso-8859-1"?>
<!-- Generator: Adobe Illustrator 19.0.0, SVG Export Plug-In . SVG Version: 6.00 Build 0)  -->
<svg version="1.1" id="Layer_1"
	xmlns="http://www.w3.org/2000/svg"
	xmlns:xlink="http://www.w3.org/1999/xlink" x="0px" y="0px" viewBox="0 0 503.046 503.046" style="enable-background:new 0 0 503.046 503.046;" xml:space="preserve">
	<g transform="translate(1 1)">
		<g>

			<rect x="-70.712" y="252.729" transform="matrix(-0.7071 0.7071 -0.7071 -0.7071 608.4838 283.5337)" style="fill:#E2E3E5;" width="632.464" height="30.117"/>

			<rect x="230.461" y="-48.444" transform="matrix(-0.7071 0.7071 -0.7071 -0.7071 608.4838 283.5337)" style="fill:#E2E3E5;" width="30.117" height="632.464"/>
		</g>
		<g>
			<path style="fill:#B6B6B6;" d="M27.478,476.365c-4.518,0-7.529-1.506-10.541-4.518c-6.024-6.024-6.024-15.059,0-21.082
			L464.184,3.518c6.024-6.024,15.059-6.024,21.082,0c6.023,6.024,6.023,15.059,0,21.082L38.019,471.847
			C35.007,474.859,31.996,476.365,27.478,476.365z"/>
			<path style="fill:#B6B6B6;" d="M474.725,476.365c-4.518,0-7.529-1.506-10.541-4.518L16.937,24.6
			c-6.024-6.024-6.024-15.059,0-21.082s15.059-6.024,21.082,0l447.247,447.247c6.023,6.024,6.023,15.059,0,21.082
			C482.255,474.859,479.243,476.365,474.725,476.365z"/>
		</g>
	</g>
	<g>
	</g>
	<g>
	</g>
	<g>
	</g>
	<g>
	</g>
	<g>
	</g>
	<g>
	</g>
	<g>
	</g>
	<g>
	</g>
	<g>
	</g>
	<g>
	</g>
	<g>
	</g>
	<g>
	</g>
	<g>
	</g>
	<g>
	</g>
	<g>
	</g>
</svg>
