<?xml version="1.0" standalone="no"?>
<!DOCTYPE svg PUBLIC "-//W3C//DTD SVG 20010904//EN"
 "http://www.w3.org/TR/2001/REC-SVG-20010904/DTD/svg10.dtd">
<svg version="1.0" xmlns="http://www.w3.org/2000/svg"
 width="520.000000pt" height="520.000000pt" viewBox="0 0 520.000000 520.000000"
 preserveAspectRatio="xMidYMid meet">
<metadata>
Created by potrace 1.14, written by Peter Selinger 2001-2017
</metadata>
<g transform="translate(0.000000,520.000000) scale(0.100000,-0.100000)"
fill="#000000" stroke="none">
<path d="M635 2663 l0 -2168 25 -5 c24 -5 25 -8 25 -83 l-1 -77 431 0 431 0
-2 1018 c-1 925 -8 1647 -19 1915 -11 265 -16 374 -21 400 -8 50 11 28 51 -61
40 -90 219 -445 318 -634 32 -60 82 -156 113 -215 31 -60 69 -130 84 -158 15
-27 51 -95 80 -150 29 -55 96 -179 148 -275 52 -96 113 -209 135 -250 40 -76
140 -258 185 -340 13 -25 45 -83 70 -130 25 -47 102 -189 173 -316 70 -127
148 -271 175 -320 26 -49 64 -118 84 -154 20 -36 50 -90 67 -120 16 -30 49
-90 72 -132 l43 -78 553 0 554 0 0 2170 0 2170 -25 0 c-26 0 -26 1 -26 103 l0
57 -427 0 -427 0 2 -1167 c2 -1233 7 -1558 29 -1838 12 -154 14 -209 9 -195
-53 126 -267 541 -474 920 -32 58 -74 137 -95 175 -21 39 -53 96 -71 128 -19
32 -34 60 -34 63 0 2 -10 21 -23 42 -13 20 -44 75 -69 122 -48 90 -430 774
-529 948 -33 57 -59 104 -59 106 0 2 -23 43 -51 92 -28 49 -66 116 -85 149
-18 33 -82 148 -141 255 l-109 195 -585 3 -584 2 0 -2167z"/>
</g>
</svg>
